<svg width="20" height="21" viewBox="0 0 20 21" fill="none" xmlns="http://www.w3.org/2000/svg">
<path d="M15.5 21.0002C14.9662 21.0064 14.4382 20.889 13.9574 20.6572C13.4765 20.4253 13.0558 20.0854 12.7282 19.6639C12.4006 19.2425 12.1749 18.7509 12.0689 18.2278C11.9629 17.7046 11.9793 17.164 12.117 16.6482L5.85697 13.0702C5.3289 13.554 4.6649 13.8639 3.9549 13.9578C3.24489 14.0517 2.52317 13.9252 1.88746 13.5953C1.25175 13.2655 0.732762 12.7482 0.400768 12.1136C0.0687727 11.479 -0.0601903 10.7577 0.0313408 10.0474C0.122872 9.3371 0.430475 8.67206 0.9125 8.14236C1.39453 7.61266 2.02769 7.24388 2.72625 7.08596C3.42481 6.92803 4.15504 6.9886 4.81804 7.25944C5.48104 7.53029 6.0448 7.99834 6.43297 8.60021L12.116 5.35121C12.0425 5.07339 12.0035 4.78757 12 4.50021C11.993 3.68844 12.266 2.89907 12.7729 2.26501C13.2799 1.63095 13.9898 1.19093 14.7832 1.01903C15.5766 0.847141 16.405 0.953877 17.1289 1.32127C17.8528 1.68866 18.428 2.29427 18.7576 3.03613C19.0873 3.77798 19.1512 4.61077 18.9387 5.39426C18.7262 6.17775 18.2502 6.86409 17.5909 7.33772C16.9316 7.81134 16.1292 8.04333 15.3189 7.9946C14.5086 7.94588 13.7398 7.61943 13.142 7.07021L6.99197 10.5852C6.98497 10.8452 6.94897 11.1022 6.88297 11.3532L13.143 14.9302C13.562 14.5457 14.0684 14.2692 14.6185 14.1248C15.1685 13.9804 15.7455 13.9724 16.2993 14.1014C16.8531 14.2305 17.3671 14.4927 17.7966 14.8654C18.2262 15.2381 18.5583 15.71 18.7641 16.2401C18.9699 16.7702 19.0433 17.3426 18.9779 17.9075C18.9124 18.4724 18.7101 19.0128 18.3885 19.4818C18.0669 19.9508 17.6357 20.3342 17.1323 20.5988C16.629 20.8634 16.0686 21.0012 15.5 21.0002ZM15.5 16.0002C15.1021 16.0002 14.7206 16.1582 14.4393 16.4396C14.158 16.7209 14 17.1024 14 17.5002C14 17.898 14.158 18.2796 14.4393 18.5609C14.7206 18.8422 15.1021 19.0002 15.5 19.0002C15.8978 19.0002 16.2793 18.8422 16.5606 18.5609C16.8419 18.2796 17 17.898 17 17.5002C17 17.1024 16.8419 16.7209 16.5606 16.4396C16.2793 16.1582 15.8978 16.0002 15.5 16.0002ZM3.49997 9.00021C3.10215 9.00021 2.72062 9.15825 2.43931 9.43955C2.15801 9.72086 1.99997 10.1024 1.99997 10.5002C1.99997 10.898 2.15801 11.2796 2.43931 11.5609C2.72062 11.8422 3.10215 12.0002 3.49997 12.0002C3.8978 12.0002 4.27933 11.8422 4.56063 11.5609C4.84194 11.2796 4.99997 10.898 4.99997 10.5002C4.99997 10.1024 4.84194 9.72086 4.56063 9.43955C4.27933 9.15825 3.8978 9.00021 3.49997 9.00021ZM15.5 3.00021C15.303 3.00021 15.1079 3.03901 14.9259 3.11439C14.744 3.18977 14.5786 3.30026 14.4393 3.43955C14.3 3.57884 14.1895 3.7442 14.1142 3.92619C14.0388 4.10817 14 4.30323 14 4.50021C14 4.69719 14.0388 4.89225 14.1142 5.07424C14.1895 5.25622 14.3 5.42158 14.4393 5.56087C14.5786 5.70016 14.744 5.81065 14.9259 5.88603C15.1079 5.96141 15.303 6.00021 15.5 6.00021C15.8978 6.00021 16.2793 5.84218 16.5606 5.56087C16.8419 5.27957 17 4.89804 17 4.50021C17 4.10239 16.8419 3.72086 16.5606 3.43955C16.2793 3.15825 15.8978 3.00021 15.5 3.00021Z" fill="#5E5E5E"/>
</svg>
