<svg width="19" height="19" viewBox="0 0 19 19" fill="none" xmlns="http://www.w3.org/2000/svg">
<path d="M0.000310898 0.962237C0.0102119 0.87483 0.0293312 0.788717 0.0573463 0.705339V0.619707C0.102917 0.513816 0.167334 0.417097 0.247459 0.334265C0.328131 0.258399 0.421417 0.197221 0.523121 0.153486H0.608673C0.69628 0.0865118 0.796515 0.0379649 0.903349 0.010765H0.950876C1.04539 -0.00358832 1.14153 -0.00358832 1.23605 0.010765L18.3462 5.71959C18.5364 5.78216 18.702 5.90323 18.8194 6.06554C18.9368 6.22785 19 6.42311 19 6.62349C19 6.82387 18.9368 7.01913 18.8194 7.18144C18.702 7.34375 18.5364 7.46482 18.3462 7.52739L10.2379 10.2296L7.53831 18.3456C7.4758 18.536 7.35484 18.7017 7.19269 18.8192C7.03053 18.9367 6.83545 19 6.63527 19C6.43508 19 6.24 18.9367 6.07785 18.8192C5.91569 18.7017 5.79474 18.536 5.73223 18.3456L0.0288296 1.21913C0.00769424 1.1352 -0.00190163 1.04877 0.000310898 0.962237ZM4.46798 3.14111L9.76263 8.4408L15.0573 6.67107L4.46798 3.14111ZM6.65428 15.0821L8.42233 9.78238L3.12768 4.48268L6.65428 15.0821Z" fill="#0779E4"/>
</svg>
