<svg width="14" height="18" viewBox="0 0 14 18" fill="none" xmlns="http://www.w3.org/2000/svg">
<path fill-rule="evenodd" clip-rule="evenodd" d="M3 4C3 6.20914 4.79086 8 7 8C9.20914 8 11 6.20914 11 4C11 1.79086 9.20914 0 7 0C4.79086 0 3 1.79086 3 4ZM5 4C5 5.10457 5.89543 6 7 6C8.10457 6 9 5.10457 9 4C9 2.89543 8.10457 2 7 2C5.89543 2 5 2.89543 5 4Z" fill="black"/>
<path d="M2 12C2 11.4477 2.44772 11 3 11H11C11.5523 11 12 11.4477 12 12V18H14V12C14 10.3431 12.6569 9 11 9H3C1.34315 9 0 10.3431 0 12V18H2V12Z" fill="black"/>
</svg>
