<svg width="26" height="24" viewBox="0 0 26 24" fill="none" xmlns="http://www.w3.org/2000/svg">
<path d="M24 7.46154C24 7.18462 23.84 6.97692 23.6 6.83846L18 4.06923C17.84 4 17.76 4 17.6 4C17.44 4 17.36 4 17.2 4.06923L12 6.63077L6.8 4.06923C6.64 4 6.56 4 6.4 4C6.24 4 6.16 4 6 4.06923L0.4 6.83846C0.16 6.97692 0 7.18462 0 7.46154V21.3077C0 21.7231 0.32 22 0.8 22C0.96 22 1.04 21.9308 1.2 21.9308L6.4 19.3692L11.6 21.9308C11.76 22 11.84 22 12 22C12.16 22 12.24 22 12.4 21.9308L17.6 19.3692L22.8 21.9308C22.88 22 23.04 22 23.2 22C23.68 22 24 21.7231 24 21.3077V7.46154ZM1.6 7.87692L5.6 5.86923V18.1231L1.6 20.1308V7.87692ZM11.2 20.1308L7.2 18.1231V5.86923L11.2 7.87692V20.1308ZM16.8 18.1231L12.8 20.1308V7.87692L16.8 5.86923V18.1231ZM18.4 18.1231V5.86923L22.4 7.87692V20.1308L18.4 18.1231Z" fill="#0779E4"/>
</svg>
