<svg width="28" height="28" viewBox="0 0 28 28" fill="none" xmlns="http://www.w3.org/2000/svg">
<path d="M11.8158 8.32164C12.1733 8.05966 12.6212 7.9165 13.0833 7.9165C13.5453 7.9165 13.9932 8.05966 14.3507 8.32164L21.3257 13.4098C21.563 13.5839 21.7541 13.803 21.8851 14.0513C22.0161 14.2996 22.0838 14.5709 22.0832 14.8455V24.0749C22.0832 25.0918 21.1769 25.916 20.0582 25.916H17.3583C16.2396 25.916 15.3333 25.0918 15.3333 24.0749V19.6399C15.3333 19.3013 15.0315 19.0265 14.6583 19.0265H11.5083C11.1355 19.0265 10.8333 19.3013 10.8333 19.6399V24.0754C10.8333 25.0923 9.9269 25.9165 8.80825 25.9165H6.10825C4.99014 25.916 4.08326 25.0918 4.08326 24.0749V14.8455C4.08268 14.5709 4.15036 14.2996 4.28138 14.0513C4.41241 13.803 4.60351 13.5839 4.84084 13.4098L11.8158 8.32164ZM13.5057 9.27892C13.3865 9.19165 13.2373 9.14397 13.0833 9.14397C12.9292 9.14397 12.78 9.19165 12.6608 9.27892L5.68578 14.3666C5.60665 14.4247 5.54293 14.4978 5.49926 14.5806C5.45558 14.6634 5.43304 14.7539 5.43326 14.8455V24.0749C5.43326 24.414 5.73502 24.6888 6.10825 24.6888H8.80825C9.18096 24.6888 9.48325 24.414 9.48325 24.0749V19.6399C9.48325 18.6234 10.3901 17.7993 11.5083 17.7993H14.6583C15.7764 17.7993 16.6833 18.6234 16.6833 19.6399V24.0754C16.6833 24.4145 16.985 24.6892 17.3583 24.6892H20.0582C20.431 24.6892 20.7332 24.4145 20.7332 24.0754V14.8455C20.7335 14.7539 20.711 14.6635 20.6673 14.5808C20.6237 14.498 20.5599 14.425 20.4807 14.3671L13.5057 9.27845V9.27892Z" fill="#0779E4"/>
</svg>
