<svg width="16" height="19" viewBox="0 0 16 19" fill="none" xmlns="http://www.w3.org/2000/svg">
<path d="M13.3333 6.33333H15.1111C15.3469 6.33333 15.573 6.42866 15.7397 6.59833C15.9064 6.76801 16 6.99814 16 7.2381V18.0952C16 18.3352 15.9064 18.5653 15.7397 18.735C15.573 18.9047 15.3469 19 15.1111 19H0.888889C0.653141 19 0.427048 18.9047 0.260349 18.735C0.0936505 18.5653 0 18.3352 0 18.0952V7.2381C0 6.99814 0.0936505 6.76801 0.260349 6.59833C0.427048 6.42866 0.653141 6.33333 0.888889 6.33333H2.66667V5.42857C2.66667 3.98882 3.22857 2.60805 4.22876 1.58999C5.22896 0.571937 6.58551 0 8 0C9.41449 0 10.771 0.571937 11.7712 1.58999C12.7714 2.60805 13.3333 3.98882 13.3333 5.42857V6.33333ZM1.77778 8.14286V17.1905H14.2222V8.14286H1.77778ZM7.11111 11.7619H8.88889V13.5714H7.11111V11.7619ZM3.55556 11.7619H5.33333V13.5714H3.55556V11.7619ZM10.6667 11.7619H12.4444V13.5714H10.6667V11.7619ZM11.5556 6.33333V5.42857C11.5556 4.46874 11.181 3.54822 10.5142 2.86952C9.84736 2.19081 8.94299 1.80952 8 1.80952C7.05701 1.80952 6.15264 2.19081 5.48584 2.86952C4.81905 3.54822 4.44444 4.46874 4.44444 5.42857V6.33333H11.5556Z" fill="black"/>
</svg>
