<svg width="24" height="24" viewBox="0 0 24 24" fill="none" xmlns="http://www.w3.org/2000/svg">
<path d="M2.00031 3.96224C2.01021 3.87483 2.02933 3.78872 2.05735 3.70534V3.61971C2.10291 3.51382 2.16733 3.4171 2.24746 3.33427C2.32813 3.2584 2.42142 3.19722 2.52312 3.15349H2.60867C2.69628 3.08651 2.79651 3.03796 2.90335 3.01076H2.95088C3.04539 2.99641 3.14153 2.99641 3.23605 3.01076L20.3462 8.71959C20.5364 8.78216 20.702 8.90323 20.8194 9.06554C20.9368 9.22785 21 9.42311 21 9.62349C21 9.82387 20.9368 10.0191 20.8194 10.1814C20.702 10.3438 20.5364 10.4648 20.3462 10.5274L12.2379 13.2296L9.53831 21.3456C9.4758 21.536 9.35484 21.7017 9.19269 21.8192C9.03053 21.9367 8.83545 22 8.63527 22C8.43508 22 8.24 21.9367 8.07785 21.8192C7.91569 21.7017 7.79474 21.536 7.73223 21.3456L2.02883 4.21913C2.00769 4.1352 1.9981 4.04877 2.00031 3.96224ZM6.46798 6.14111L11.7626 11.4408L17.0573 9.67107L6.46798 6.14111ZM8.65428 18.0821L10.4223 12.7824L5.12768 7.48268L8.65428 18.0821Z" fill="#616161"/>
</svg>
