<svg width="28" height="28" viewBox="0 0 28 28" fill="none" xmlns="http://www.w3.org/2000/svg">
<path d="M11.8158 8.32115C12.1733 8.05917 12.6212 7.91602 13.0833 7.91602C13.5453 7.91602 13.9932 8.05917 14.3507 8.32115L21.3257 13.4093C21.563 13.5834 21.7541 13.8025 21.8851 14.0508C22.0161 14.2991 22.0838 14.5704 22.0832 14.845V24.0744C22.0832 25.0914 21.1769 25.9155 20.0582 25.9155H17.3583C16.2396 25.9155 15.3333 25.0914 15.3333 24.0744V19.6394C15.3333 19.3008 15.0315 19.026 14.6583 19.026H11.5083C11.1355 19.026 10.8333 19.3008 10.8333 19.6394V24.0749C10.8333 25.0918 9.9269 25.916 8.80825 25.916H6.10825C4.99014 25.9155 4.08326 25.0914 4.08326 24.0744V14.845C4.08268 14.5704 4.15036 14.2991 4.28138 14.0508C4.41241 13.8025 4.60351 13.5834 4.84084 13.4093L11.8158 8.32115ZM13.5057 9.27844C13.3865 9.19117 13.2373 9.14348 13.0833 9.14348C12.9292 9.14348 12.78 9.19117 12.6608 9.27844L5.68578 14.3661C5.60665 14.4242 5.54293 14.4973 5.49926 14.5801C5.45558 14.6629 5.43304 14.7534 5.43326 14.845V24.0744C5.43326 24.4135 5.73502 24.6883 6.10825 24.6883H8.80825C9.18096 24.6883 9.48325 24.4135 9.48325 24.0744V19.6394C9.48325 18.623 10.3901 17.7988 11.5083 17.7988H14.6583C15.7764 17.7988 16.6833 18.623 16.6833 19.6394V24.0749C16.6833 24.414 16.985 24.6887 17.3583 24.6887H20.0582C20.431 24.6887 20.7332 24.414 20.7332 24.0749V14.845C20.7335 14.7535 20.711 14.663 20.6673 14.5803C20.6237 14.4975 20.5599 14.4245 20.4807 14.3666L13.5057 9.27796V9.27844Z" fill="#616161"/>
</svg>
