<svg width="15" height="14" viewBox="0 0 15 14" fill="none" xmlns="http://www.w3.org/2000/svg">
<path d="M14.2037 4.77871L13.4744 4.66309C10.9693 8.79405 6.08607 11.2327 3.09481 12.3994L3.04196 12.6727C2.96797 13.0722 3.39077 13.377 3.75014 13.1983L7.33332 11.3693C7.4813 11.2958 7.65041 11.2958 7.78782 11.3693L11.3393 13.2719C11.6987 13.4611 12.1215 13.1668 12.058 12.7673L11.4133 8.81507C11.3921 8.6574 11.445 8.49973 11.5613 8.38411L14.4785 5.61962C14.7533 5.33581 14.6054 4.84178 14.2037 4.77871Z" fill="#E2E2E2"/>
<path d="M13.4634 4.66147L10.2184 4.15692C10.0599 4.1359 9.92245 4.03079 9.84846 3.88363L8.10443 0.278228C7.92475 -0.0896697 7.40682 -0.0896697 7.22714 0.267717L5.40912 3.84158C5.33513 3.98874 5.19772 4.08334 5.03918 4.10436L1.04377 4.64044C0.642117 4.693 0.472995 5.18704 0.768951 5.47084L3.62281 8.2984C3.73908 8.41402 3.79193 8.57169 3.76023 8.72936L3.09432 12.3978C6.07502 11.2311 10.9689 8.79243 13.4634 4.66147Z" fill="#EDEDED"/>
</svg>
