<svg width="15" height="14" viewBox="0 0 15 14" fill="none" xmlns="http://www.w3.org/2000/svg">
<path d="M14.4552 4.77871L13.7259 4.66309C11.2208 8.79405 6.33755 11.2327 3.34627 12.3994L3.29342 12.6727C3.21944 13.0722 3.64223 13.377 4.0016 13.1983L7.58479 11.3693C7.73277 11.2958 7.90189 11.2958 8.0393 11.3693L11.5908 13.2719C11.9502 13.4611 12.3729 13.1668 12.3095 12.7673L11.6648 8.81507C11.6436 8.6574 11.6965 8.49973 11.8127 8.38411L14.7195 5.60911C15.0154 5.33581 14.8569 4.84178 14.4552 4.77871Z" fill="#FFC429"/>
<path d="M13.7257 4.66147L10.4807 4.15692C10.3222 4.1359 10.1847 4.03079 10.1108 3.88363L8.35616 0.278228C8.17647 -0.0896697 7.65855 -0.0896697 7.47886 0.267717L5.66084 3.84158C5.58685 3.98874 5.44944 4.08334 5.29089 4.10436L1.29548 4.65096C0.893823 4.70351 0.724705 5.19755 1.02066 5.48135L3.87453 8.30891C3.9908 8.42454 4.04365 8.58221 4.01194 8.73988L3.34603 12.4083C6.32674 11.2311 11.2206 8.79243 13.7257 4.66147Z" fill="#FCD010"/>
</svg>
