<svg width="36" height="34" viewBox="0 0 36 34" fill="none" xmlns="http://www.w3.org/2000/svg">
<path d="M33.9634 11.9444L32.1399 11.6553C25.8766 21.9838 13.6671 28.081 6.18809 30.9982L6.05595 31.6815C5.87096 32.6802 6.92806 33.4424 7.82659 32.9956L16.7855 28.4227C17.1555 28.2387 17.5783 28.2387 17.9219 28.4227L26.8015 33.1796C27.7001 33.6526 28.7572 32.9168 28.5986 31.9181L26.9865 22.0363C26.9337 21.6421 27.0658 21.2479 27.3565 20.9588L34.6241 14.0206C35.364 13.3373 34.9676 12.1021 33.9634 11.9444Z" fill="#E2E2E2"/>
<path d="M32.1404 11.6525L24.0272 10.391C23.6307 10.3384 23.2872 10.0756 23.1022 9.70765L18.7152 0.693202C18.266 -0.22664 16.971 -0.22664 16.5218 0.666921L11.9762 9.60253C11.7912 9.97047 11.4477 10.207 11.0513 10.2596L1.06168 11.6262C0.0574395 11.7576 -0.3654 12.9928 0.374569 13.7024L7.50999 20.772C7.80069 21.0611 7.93283 21.4553 7.85354 21.8496L6.18861 31.0217C13.6412 28.0782 25.8771 21.981 32.1404 11.6525Z" fill="#EDEDED"/>
</svg>
