<svg width="16" height="18" viewBox="0 0 16 18" fill="none" xmlns="http://www.w3.org/2000/svg">
<path d="M0.290689 16.2831C0.287501 16.4286 0.403808 16.5493 0.550218 16.5493H1.74487C1.88485 16.5493 2.001 16.4361 2.00439 16.2959C2.04362 14.7773 2.64955 13.3557 3.7224 12.2778L3.72246 12.2778C4.8306 11.1626 6.30091 10.5493 7.8697 10.5493C10.6575 10.5493 12.9158 8.28426 12.9158 5.4893C12.9158 2.69433 10.6575 0.429297 7.8697 0.429297C5.08187 0.429297 2.82357 2.69433 2.82357 5.4893C2.82357 7.11631 3.58989 8.56551 4.78055 9.49038C3.9333 9.86989 3.17054 10.3981 2.50972 11.0627C1.81251 11.7618 1.26679 12.5767 0.884863 13.4845C0.510974 14.3722 0.310902 15.3146 0.290689 16.2831ZM0.290689 16.2831C0.290689 16.2831 0.29069 16.2831 0.29069 16.2831L0.390666 16.2853L0.290687 16.2832C0.290688 16.2832 0.290688 16.2832 0.290689 16.2831ZM10.7478 10.5082L10.7467 10.5096L9.38056 12.2516L9.38054 12.2516C9.27877 12.3815 9.22363 12.5433 9.22363 12.7093L9.22363 12.7099C9.22593 13.1183 9.55523 13.4493 9.96384 13.4493H15.2291C15.3723 13.4493 15.4886 13.3323 15.4886 13.1893V12.0693C15.4886 11.9263 15.3723 11.8093 15.2291 11.8093H11.9143L12.729 10.769C12.729 10.769 12.729 10.769 12.729 10.769C12.765 10.7231 12.7842 10.6653 12.7842 10.6093C12.7842 10.4663 12.6679 10.3493 12.5247 10.3493H11.0767C10.9472 10.3493 10.8276 10.4102 10.7478 10.5082ZM13.9664 17.4704L13.9675 17.469L15.3337 15.727L15.3337 15.727C15.4355 15.5971 15.4906 15.4353 15.4906 15.2693L15.4906 15.2687C15.4883 14.8603 15.159 14.5293 14.7504 14.5293H9.48518C9.34193 14.5293 9.22562 14.6463 9.22562 14.7893V15.9093C9.22562 16.0523 9.34193 16.1693 9.48518 16.1693H12.8L11.9852 17.2096C11.9852 17.2096 11.9852 17.2096 11.9852 17.2096C11.9493 17.2555 11.93 17.3133 11.93 17.3693C11.93 17.5123 12.0464 17.6293 12.1896 17.6293H13.6375C13.767 17.6293 13.8867 17.5684 13.9664 17.4704ZM7.8697 8.8293C6.03051 8.8293 4.53932 7.33433 4.53932 5.4893C4.53932 3.64426 6.03051 2.1493 7.8697 2.1493C9.7089 2.1493 11.2001 3.64426 11.2001 5.4893C11.2001 7.33433 9.7089 8.8293 7.8697 8.8293Z" fill="black" stroke="black" stroke-width="0.2"/>
</svg>
