<svg width="8" height="13" viewBox="0 0 8 13" fill="none" xmlns="http://www.w3.org/2000/svg">
<path d="M1.1262 10.6913L1.1262 10.6913L5.12815 6.49718L1.13174 2.30884C0.823683 1.98598 0.823683 1.46698 1.13174 1.14412C1.44232 0.818624 1.94545 0.818624 2.25603 1.14412L6.91043 6.02205C6.91044 6.02206 6.91045 6.02207 6.91046 6.02208L6.9105 6.02213L6.83815 6.09116C6.88945 6.14482 6.93016 6.20856 6.95793 6.27873C6.9857 6.34889 7 6.42411 7 6.50008C7 6.57604 6.9857 6.65126 6.95793 6.72143C6.93016 6.7916 6.88945 6.85533 6.83815 6.90899L1.1262 10.6913ZM1.1262 10.6913L1.1255 10.6921M1.1262 10.6913L1.1255 10.6921M1.1255 10.6921C0.82384 11.0148 0.823779 11.5332 1.1317 11.856C1.20501 11.933 1.29235 11.9944 1.38886 12.0363M1.1255 10.6921L1.38886 12.0363M1.38886 12.0363C1.4854 12.0783 1.58907 12.1 1.69389 12.1M1.38886 12.0363L1.69389 12.1M1.69389 12.1C1.7987 12.1 1.90237 12.0783 1.99891 12.0363M1.69389 12.1L1.99891 12.0363M1.99891 12.0363C2.0954 11.9944 2.18273 11.933 2.25603 11.856L1.99891 12.0363ZM2.25612 11.8559L6.91043 6.9781L2.25612 11.8559Z" fill="black" stroke="black" stroke-width="0.2"/>
</svg>
