<svg width="20" height="20" viewBox="0 0 20 20" fill="none" xmlns="http://www.w3.org/2000/svg">
<path d="M9.99992 17.3334C11.9448 17.3334 13.8101 16.5608 15.1854 15.1855C16.5606 13.8102 17.3333 11.945 17.3333 10C17.3333 8.05512 16.5606 6.18986 15.1854 4.81459C13.8101 3.43932 11.9448 2.66671 9.99992 2.66671C8.055 2.66671 6.18974 3.43932 4.81447 4.81459C3.4392 6.18986 2.66659 8.05512 2.66659 10C2.66659 11.945 3.4392 13.8102 4.81447 15.1855C6.18974 16.5608 8.055 17.3334 9.99992 17.3334ZM9.99992 19.1667C4.93717 19.1667 0.833252 15.0628 0.833252 10C0.833252 4.93729 4.93717 0.833374 9.99992 0.833374C15.0627 0.833374 19.1666 4.93729 19.1666 10C19.1666 15.0628 15.0627 19.1667 9.99992 19.1667ZM9.08325 9.08337V14.5834H10.9166V9.08337H9.08325ZM9.08325 5.41671H10.9166V7.25004H9.08325V5.41671Z" fill="black"/>
</svg>
