<svg width="24" height="24" viewBox="0 0 24 24" fill="none" xmlns="http://www.w3.org/2000/svg">
<path d="M23.752 11.9883C23.752 5.50699 18.4871 0.247925 11.9999 0.247925C5.51274 0.247925 0.247803 5.50699 0.247803 11.9883C0.247803 15.558 1.86959 18.7751 4.40805 20.9346C4.43155 20.9581 4.45505 20.9581 4.45505 20.9816C4.66659 21.1461 4.87813 21.3106 5.11317 21.4752C5.23069 21.5457 5.32471 21.6382 5.44223 21.7322C7.38436 23.049 9.67697 23.7526 12.0234 23.7521C14.3698 23.7526 16.6624 23.049 18.6046 21.7322C18.7221 21.6617 18.8161 21.5692 18.9336 21.4972C19.1452 21.3341 19.3802 21.1696 19.5918 21.0051C19.6153 20.9816 19.6388 20.9816 19.6388 20.9581C22.1302 18.7736 23.752 15.558 23.752 11.9883ZM11.9999 22.2728C9.79051 22.2728 7.76915 21.5677 6.10035 20.394C6.12385 20.2059 6.17086 20.0194 6.21787 19.8313C6.35792 19.3217 6.56333 18.8324 6.82898 18.3755C7.08752 17.929 7.39308 17.5294 7.76915 17.1768C8.12171 16.8243 8.54478 16.4967 8.96786 16.2381C9.41444 15.9796 9.88452 15.7915 10.4016 15.6505C10.9227 15.5101 11.4602 15.4394 11.9999 15.4404C13.6021 15.4291 15.1454 16.0437 16.3012 17.1533C16.8418 17.6939 17.2648 18.3285 17.5704 19.0557C17.7349 19.4788 17.8524 19.9253 17.923 20.394C16.1883 21.6135 14.1203 22.2695 11.9999 22.2728ZM8.40376 11.4021C8.19666 10.928 8.09252 10.4153 8.0982 9.89787C8.0982 9.38224 8.19222 8.86515 8.40376 8.39507C8.6153 7.92498 8.89735 7.50338 9.24991 7.15081C9.60247 6.79825 10.0255 6.51767 10.4956 6.30613C10.9657 6.09459 11.4828 6.00058 11.9999 6.00058C12.5405 6.00058 13.0341 6.09459 13.5042 6.30613C13.9743 6.51767 14.3973 6.79972 14.7499 7.15081C15.1025 7.50338 15.3845 7.92645 15.596 8.39507C15.8076 8.86515 15.9016 9.38224 15.9016 9.89787C15.9016 10.4385 15.8076 10.9321 15.596 11.4007C15.3919 11.8638 15.1052 12.2859 14.7499 12.6464C14.3893 13.0011 13.9672 13.2874 13.5042 13.4911C12.5329 13.8902 11.4434 13.8902 10.4721 13.4911C10.0091 13.2874 9.587 13.0011 9.22641 12.6464C8.87063 12.2912 8.59075 11.8673 8.40376 11.4007V11.4021ZM19.3097 19.1967C19.3097 19.1497 19.2862 19.1262 19.2862 19.0792C19.055 18.3438 18.7143 17.6475 18.2755 17.0138C17.8363 16.3753 17.2966 15.8122 16.6772 15.3464C16.2042 14.9906 15.6916 14.6909 15.1495 14.4533C15.3961 14.2906 15.6246 14.102 15.8311 13.8906C16.1815 13.5447 16.4892 13.158 16.7477 12.7389C17.2683 11.8837 17.5371 10.899 17.5234 9.89787C17.5307 9.15677 17.3867 8.42198 17.1003 7.73842C16.8176 7.07977 16.4106 6.48176 15.9016 5.97707C15.3934 5.47765 14.7953 5.0789 14.1388 4.80186C13.4541 4.51598 12.7183 4.37253 11.9764 4.38026C11.2344 4.373 10.4986 4.51695 9.81401 4.80333C9.15186 5.07978 8.55229 5.48699 8.0512 6.00058C7.55179 6.50825 7.15303 7.10589 6.87599 7.76192C6.5896 8.44548 6.44564 9.18028 6.45291 9.92137C6.45291 10.4385 6.52342 10.9321 6.66445 11.4007C6.80547 11.8943 6.99351 12.3408 7.25205 12.7624C7.4871 13.1855 7.81615 13.5616 8.16872 13.9141C8.38025 14.1257 8.6153 14.3122 8.87384 14.4768C8.33007 14.7207 7.81721 15.0284 7.34607 15.3934C6.73496 15.8635 6.19436 16.4262 5.74778 17.0373C5.30452 17.6684 4.96345 18.3654 4.7371 19.1027C4.7136 19.1497 4.7136 19.1967 4.7136 19.2202C2.85677 17.3414 1.70506 14.8058 1.70506 11.9883C1.70506 6.32964 6.33539 1.70372 11.9999 1.70372C17.6644 1.70372 22.2947 6.32964 22.2947 11.9883C22.2917 14.6912 21.2184 17.2829 19.3097 19.1967Z" fill="#0779E4"/>
</svg>
