<svg width="24" height="24" viewBox="0 0 24 24" fill="none" xmlns="http://www.w3.org/2000/svg">
<path d="M23.752 11.9881C23.752 5.50687 18.4871 0.247803 11.9999 0.247803C5.51274 0.247803 0.247803 5.50687 0.247803 11.9881C0.247803 15.5578 1.86959 18.775 4.40805 20.9344C4.43155 20.9579 4.45505 20.9579 4.45505 20.9814C4.66659 21.146 4.87813 21.3105 5.11317 21.475C5.23069 21.5455 5.32471 21.6381 5.44223 21.7321C7.38436 23.0489 9.67697 23.7525 12.0234 23.752C14.3698 23.7525 16.6624 23.0489 18.6046 21.7321C18.7221 21.6616 18.8161 21.569 18.9336 21.4971C19.1452 21.334 19.3802 21.1695 19.5918 21.0049C19.6153 20.9814 19.6388 20.9814 19.6388 20.9579C22.1302 18.7735 23.752 15.5578 23.752 11.9881ZM11.9999 22.2727C9.79051 22.2727 7.76915 21.5676 6.10035 20.3938C6.12385 20.2058 6.17086 20.0192 6.21787 19.8312C6.35792 19.3216 6.56333 18.8323 6.82898 18.3754C7.08752 17.9288 7.39308 17.5293 7.76915 17.1767C8.12171 16.8241 8.54478 16.4965 8.96786 16.238C9.41444 15.9795 9.88452 15.7914 10.4016 15.6504C10.9227 15.5099 11.4602 15.4393 11.9999 15.4403C13.6021 15.429 15.1454 16.0436 16.3012 17.1532C16.8418 17.6938 17.2648 18.3284 17.5704 19.0556C17.7349 19.4786 17.8524 19.9252 17.923 20.3938C16.1883 21.6133 14.1203 22.2693 11.9999 22.2727ZM8.40376 11.402C8.19666 10.9278 8.09252 10.4151 8.0982 9.89774C8.0982 9.38212 8.19222 8.86503 8.40376 8.39495C8.6153 7.92486 8.89735 7.50325 9.24991 7.15069C9.60247 6.79813 10.0255 6.51755 10.4956 6.30601C10.9657 6.09447 11.4828 6.00045 11.9999 6.00045C12.5405 6.00045 13.0341 6.09447 13.5042 6.30601C13.9743 6.51755 14.3973 6.7996 14.7499 7.15069C15.1025 7.50325 15.3845 7.92633 15.596 8.39495C15.8076 8.86503 15.9016 9.38212 15.9016 9.89774C15.9016 10.4383 15.8076 10.9319 15.596 11.4005C15.3919 11.8637 15.1052 12.2858 14.7499 12.6463C14.3893 13.001 13.9672 13.2872 13.5042 13.4909C12.5329 13.8901 11.4434 13.8901 10.4721 13.4909C10.0091 13.2872 9.587 13.001 9.22641 12.6463C8.87063 12.291 8.59075 11.8672 8.40376 11.4005V11.402ZM19.3097 19.1966C19.3097 19.1496 19.2862 19.1261 19.2862 19.0791C19.055 18.3437 18.7143 17.6474 18.2755 17.0136C17.8363 16.3752 17.2966 15.8121 16.6772 15.3463C16.2042 14.9905 15.6916 14.6908 15.1495 14.4532C15.3961 14.2905 15.6246 14.1018 15.8311 13.8905C16.1815 13.5446 16.4892 13.1579 16.7477 12.7388C17.2683 11.8836 17.5371 10.8989 17.5234 9.89774C17.5307 9.15665 17.3867 8.42186 17.1003 7.7383C16.8176 7.07965 16.4106 6.48164 15.9016 5.97695C15.3934 5.47753 14.7953 5.07878 14.1388 4.80174C13.4541 4.51586 12.7183 4.37241 11.9764 4.38013C11.2344 4.37288 10.4986 4.51683 9.81401 4.80321C9.15186 5.07966 8.55229 5.48687 8.0512 6.00045C7.55179 6.50813 7.15303 7.10577 6.87599 7.7618C6.5896 8.44536 6.44564 9.18015 6.45291 9.92125C6.45291 10.4383 6.52342 10.9319 6.66445 11.4005C6.80547 11.8941 6.99351 12.3407 7.25205 12.7623C7.4871 13.1854 7.81615 13.5615 8.16872 13.914C8.38025 14.1256 8.6153 14.3121 8.87384 14.4767C8.33007 14.7206 7.81721 15.0283 7.34607 15.3933C6.73496 15.8634 6.19436 16.426 5.74778 17.0371C5.30452 17.6683 4.96345 18.3653 4.7371 19.1026C4.7136 19.1496 4.7136 19.1966 4.7136 19.2201C2.85677 17.3412 1.70506 14.8057 1.70506 11.9881C1.70506 6.32951 6.33539 1.70359 11.9999 1.70359C17.6644 1.70359 22.2947 6.32951 22.2947 11.9881C22.2917 14.6911 21.2184 17.2828 19.3097 19.1966Z" fill="black" fill-opacity="0.5"/>
</svg>
