<svg width="22" height="22" viewBox="0 0 22 22" fill="none" xmlns="http://www.w3.org/2000/svg">
<g clip-path="url(#clip0_350_1393)">
<path d="M11 4.10669C10.3074 4.10669 9.63038 4.31206 9.05454 4.69683C8.47869 5.08159 8.02987 5.62848 7.76484 6.26833C7.49981 6.90817 7.43046 7.61224 7.56558 8.2915C7.70069 8.97075 8.03419 9.59469 8.52391 10.0844C9.01362 10.5741 9.63756 10.9076 10.3168 11.0427C10.9961 11.1779 11.7001 11.1085 12.34 10.8435C12.9798 10.5784 13.5267 10.1296 13.9115 9.55378C14.2963 8.97793 14.5016 8.30092 14.5016 7.60836C14.5016 6.67966 14.1327 5.78899 13.476 5.1323C12.8193 4.47561 11.9287 4.10669 11 4.10669ZM11 9.8878C10.5491 9.8878 10.1084 9.75411 9.73357 9.50365C9.35871 9.25318 9.06655 8.89718 8.89403 8.48066C8.7215 8.06415 8.67636 7.60583 8.76431 7.16366C8.85227 6.72149 9.06936 6.31533 9.38815 5.99655C9.70693 5.67776 10.1131 5.46066 10.5553 5.37271C10.9974 5.28476 11.4558 5.3299 11.8723 5.50242C12.2888 5.67495 12.6448 5.96711 12.8952 6.34196C13.1457 6.71682 13.2794 7.15752 13.2794 7.60836C13.2778 8.21184 13.0369 8.79006 12.6096 9.21622C12.1823 9.64238 11.6034 9.88169 11 9.88169V9.8878Z" fill="#0000FF" fill-opacity="0.7"/>
<path d="M10.9999 1.22217C9.09643 1.22376 7.27091 1.97853 5.92207 3.32164C4.57324 4.66474 3.81071 6.48703 3.80103 8.3905C3.80103 11.2444 5.40214 13.6338 6.57547 15.3755L6.78936 15.6933C7.95675 17.3852 9.2091 19.0169 10.5416 20.5822L11.006 21.1261L11.4705 20.5822C12.8028 19.0168 14.0551 17.3851 15.2227 15.6933L15.4366 15.3694C16.6038 13.6277 18.2049 11.2444 18.2049 8.3905C18.1952 6.48598 17.4319 4.66276 16.0817 3.31948C14.7315 1.9762 12.9045 1.22214 10.9999 1.22217ZM14.416 14.6666L14.196 14.9905C13.1449 16.5672 11.7516 18.3333 10.9999 19.2072C10.2788 18.3333 8.85492 16.5672 7.8038 14.9905L7.58991 14.6666C6.50825 13.0533 5.02325 10.8472 5.02325 8.36606C5.02325 7.58119 5.17784 6.80401 5.47819 6.07889C5.77855 5.35376 6.21879 4.6949 6.77377 4.13992C7.32876 3.58493 7.98762 3.14469 8.71274 2.84434C9.43787 2.54398 10.215 2.38939 10.9999 2.38939C11.7848 2.38939 12.562 2.54398 13.2871 2.84434C14.0122 3.14469 14.6711 3.58493 15.2261 4.13992C15.781 4.6949 16.2213 5.35376 16.5216 6.07889C16.822 6.80401 16.9766 7.58119 16.9766 8.36606C16.9766 10.8716 15.4977 13.0777 14.416 14.6666Z" fill="#0000FF" fill-opacity="0.7"/>
</g>
<defs>
<clipPath id="clip0_350_1393">
<rect width="22" height="22" fill="white"/>
</clipPath>
</defs>
</svg>
