<svg width="21" height="21" viewBox="0 0 21 21" fill="none" xmlns="http://www.w3.org/2000/svg">
<path d="M11.1301 9.4501C10.7101 9.3451 10.2901 9.1351 9.9751 8.8201C9.6601 8.7151 9.5551 8.4001 9.5551 8.1901C9.5551 7.9801 9.6601 7.6651 9.8701 7.5601C10.1851 7.3501 10.5001 7.1401 10.8151 7.2451C11.4451 7.2451 11.9701 7.5601 12.2851 7.9801L13.2301 6.7201C12.9151 6.4051 12.6001 6.1951 12.2851 5.9851C11.9701 5.7751 11.5501 5.6701 11.1301 5.6701V4.2001H9.8701V5.6701C9.3451 5.7751 8.8201 6.0901 8.4001 6.5101C7.9801 7.0351 7.6651 7.6651 7.7701 8.2951C7.7701 8.9251 7.9801 9.5551 8.4001 9.9751C8.9251 10.5001 9.6601 10.8151 10.2901 11.1301C10.6051 11.2351 11.0251 11.4451 11.3401 11.6551C11.5501 11.8651 11.6551 12.1801 11.6551 12.4951C11.6551 12.8101 11.5501 13.1251 11.3401 13.4401C11.0251 13.7551 10.6051 13.8601 10.2901 13.8601C9.8701 13.8601 9.3451 13.7551 9.0301 13.4401C8.7151 13.2301 8.4001 12.9151 8.1901 12.6001L7.1401 13.7551C7.4551 14.1751 7.7701 14.4901 8.1901 14.8051C8.7151 15.1201 9.3451 15.4351 9.9751 15.4351V16.8001H11.1301V15.2251C11.7601 15.1201 12.2851 14.8051 12.7051 14.3851C13.2301 13.8601 13.5451 13.0201 13.5451 12.2851C13.5451 11.6551 13.3351 10.9201 12.8101 10.5001C12.2851 9.9751 11.7601 9.6601 11.1301 9.4501ZM10.5001 2.1001C5.8801 2.1001 2.1001 5.8801 2.1001 10.5001C2.1001 15.1201 5.8801 18.9001 10.5001 18.9001C15.1201 18.9001 18.9001 15.1201 18.9001 10.5001C18.9001 5.8801 15.1201 2.1001 10.5001 2.1001ZM10.5001 17.7451C6.5101 17.7451 3.2551 14.4901 3.2551 10.5001C3.2551 6.5101 6.5101 3.2551 10.5001 3.2551C14.4901 3.2551 17.7451 6.5101 17.7451 10.5001C17.7451 14.4901 14.4901 17.7451 10.5001 17.7451Z" fill="#0000FF" fill-opacity="0.7"/>
</svg>
