<svg width="21" height="21" viewBox="0 0 21 21" fill="none" xmlns="http://www.w3.org/2000/svg">
<path fill-rule="evenodd" clip-rule="evenodd" d="M13.81 19.53C13.71 20.21 13.09 20.75 12.35 20.75H8.64999C7.90999 20.75 7.28999 20.21 7.19999 19.48L6.92999 17.59C6.65999 17.45 6.39999 17.3 6.13999 17.13L4.33999 17.85C3.63999 18.11 2.86999 17.82 2.52999 17.2L0.69999 14.03C0.34999 13.37 0.49999 12.59 1.05999 12.15L2.58999 10.96C2.57999 10.81 2.56999 10.66 2.56999 10.5C2.56999 10.35 2.57999 10.19 2.58999 10.04L1.06999 8.85001C0.47999 8.40001 0.32999 7.59001 0.69999 6.97001L2.54999 3.78001C2.88999 3.16001 3.65999 2.88001 4.33999 3.15001L6.14999 3.88001C6.40999 3.71001 6.66999 3.56001 6.92999 3.42001L7.19999 1.51001C7.28999 0.81001 7.90999 0.26001 8.63999 0.26001H12.34C13.08 0.26001 13.7 0.80001 13.79 1.53001L14.06 3.42001C14.33 3.56001 14.59 3.71001 14.85 3.88001L16.65 3.16001C17.36 2.90001 18.13 3.19001 18.47 3.81001L20.31 6.99001C20.67 7.65001 20.51 8.43001 19.95 8.87001L18.43 10.06C18.44 10.21 18.45 10.36 18.45 10.52C18.45 10.68 18.44 10.83 18.43 10.98L19.95 12.17C20.51 12.62 20.67 13.4 20.32 14.03L18.46 17.25C18.12 17.87 17.35 18.15 16.66 17.88L14.86 17.16C14.6 17.33 14.34 17.48 14.08 17.62L13.81 19.53ZM9.11999 18.75H11.88L12.25 16.2L12.78 15.98C13.22 15.8 13.66 15.54 14.12 15.2L14.57 14.86L16.95 15.82L18.33 13.42L16.3 11.84L16.37 11.28L16.3731 11.2531C16.402 11.0027 16.43 10.7607 16.43 10.5C16.43 10.23 16.4 9.97001 16.37 9.72001L16.3 9.16001L18.33 7.58001L16.94 5.18001L14.55 6.14001L14.1 5.79001C13.68 5.47001 13.23 5.21001 12.77 5.02001L12.25 4.80001L11.88 2.25001H9.11999L8.74999 4.80001L8.21999 5.01001C7.77999 5.20001 7.33999 5.45001 6.87999 5.80001L6.42999 6.13001L4.04999 5.18001L2.65999 7.57001L4.68999 9.15001L4.61999 9.71001C4.58999 9.97001 4.55999 10.24 4.55999 10.5C4.55999 10.76 4.57999 11.03 4.61999 11.28L4.68999 11.84L2.65999 13.42L4.03999 15.82L6.42999 14.86L6.87999 15.21C7.30999 15.54 7.73999 15.79 8.20999 15.98L8.73999 16.2L9.11999 18.75ZM14 10.5C14 12.433 12.433 14 10.5 14C8.56699 14 6.99999 12.433 6.99999 10.5C6.99999 8.56701 8.56699 7.00001 10.5 7.00001C12.433 7.00001 14 8.56701 14 10.5Z" fill="#49454F"/>
</svg>
